<svg width="512" height="512" viewBox="0 0 512 512" xmlns="http://www.w3.org/2000/svg">
  <!-- Background -->
  <rect width="512" height="512" rx="80" fill="#F8FAFC"></rect>

  <!-- Circular arrows -->
  <path d="M256 96
       A160 160 0 0 1 416 256" fill="none" stroke="#4F46E5" stroke-width="22" stroke-linecap="round"></path>
  <polygon points="398,220 440,256 386,262" fill="#4F46E5"></polygon>

  <path d="M256 416
       A160 160 0 0 1 96 256" fill="none" stroke="#22C55E" stroke-width="22" stroke-linecap="round"></path>
  <polygon points="114,292 72,256 126,250" fill="#22C55E"></polygon>

  <!-- Wrench (left) -->
  <path d="M158 240
       c-20-20-20-52 0-72
       l22 22
       26-6
       6-26
       -22-22
       c20-20 52-20 72 0
       c20 20 20 52 0 72
       l-40 40
       18 18
       -18 18
       -18-18
       -40 40
       c-20 20-52 20-72 0z" fill="#F59E0B"></path>

  <!-- Light bulb (right) -->
  <path d="M332 188
       c-44 0-76 32-76 72
       0 28 14 44 28 58
       v22
       h96
       v-22
       c14-14 28-30 28-58
       0-40-32-72-76-72z" fill="#EC4899"></path>
  <rect x="284" y="340" width="96" height="22" rx="10" fill="#9333EA"></rect>
  <rect x="300" y="366" width="64" height="14" rx="7" fill="#9333EA"></rect>

</svg>
